<svg width="21" height="21" viewBox="0 0 21 21" fill="none" xmlns="http://www.w3.org/2000/svg">
<path d="M3 3L0 3V0H3V3Z" fill="white"/>
<path d="M12 3L9 3V0H12V3Z" fill="white"/>
<path d="M21 3L18 3V0H21V3Z" fill="white"/>
<path d="M3 12L0 12V9H3V12Z" fill="white"/>
<path d="M12 12L9 12V9H12V12Z" fill="white"/>
<path d="M21 12L18 12V9H21V12Z" fill="white"/>
<path d="M3 21L0 21V18H3V21Z" fill="white"/>
<path d="M12 21L9 21V18H12V21Z" fill="white"/>
<path d="M21 21L18 21V18H21V21Z" fill="white"/>
</svg>
