<svg width="56" height="56" viewBox="0 0 56 56" fill="none" xmlns="http://www.w3.org/2000/svg">
<path fill-rule="evenodd" clip-rule="evenodd" d="M29.3347 9.31435C26.973 7.72031 24.192 6.86151 21.3427 6.84632C19.4429 6.83872 17.5603 7.20605 15.8026 7.92724C14.045 8.64843 12.4469 9.70932 11.1 11.0491C9.75303 12.3889 8.68365 13.9813 7.95312 15.7351C7.22259 17.4889 6.84526 19.3696 6.84274 21.2694C6.84279 24.1187 7.68678 26.9042 9.26823 29.2744C10.8497 31.6445 13.0977 33.4932 15.7287 34.5871C18.3597 35.6809 21.2558 35.971 24.0515 35.4207C26.8471 34.8704 29.4172 33.5043 31.4373 31.4949C33.4574 29.4855 34.8371 26.9228 35.4023 24.1301C35.9675 21.3373 35.6928 18.4398 34.613 15.803C33.5331 13.1662 31.6964 10.9084 29.3347 9.31435ZM11.172 6.04162C14.1865 4.04345 17.7262 2.98493 21.3427 3.00016C26.1747 3.02051 30.8018 4.95427 34.2113 8.37822C37.6209 11.8022 39.5351 16.4374 39.5351 21.2694C39.535 24.886 38.4616 28.4212 36.4507 31.4272C36.154 31.8707 35.8389 32.2997 35.5065 32.7133L52.5103 49.7171C53.2613 50.4681 53.2613 51.6857 52.5103 52.4367C51.7593 53.1878 50.5417 53.1878 49.7907 52.4367L32.795 35.4411C31.4239 36.5565 29.8908 37.4732 28.2393 38.1552C24.8965 39.5357 21.2193 39.8929 17.6733 39.1818C14.1273 38.4706 10.8722 36.7229 8.3203 34.1602C5.76839 31.5975 4.03451 28.3351 3.3383 24.7862C2.64209 21.2372 3.01487 17.5615 4.40943 14.2246C5.80399 10.8877 8.15757 8.03979 11.172 6.04162Z" fill="black"/>
</svg>
